<svg width="20" height="20" viewBox="0 0 20 20" fill="none" xmlns="http://www.w3.org/2000/svg">
<path d="M19.3334 9.99996C19.3334 10.7363 18.7365 11.3333 18.0001 11.3333H11.3334V18C11.3334 18.7363 10.7365 19.3333 10.0001 19.3333C9.2637 19.3333 8.66675 18.7363 8.66675 18V11.3333H2.00008C1.2637 11.3333 0.666748 10.7363 0.666748 9.99996C0.666748 9.26358 1.2637 8.66663 2.00008 8.66663H8.66675V1.99996C8.66675 1.26358 9.2637 0.666626 10.0001 0.666626C10.7365 0.666626 11.3334 1.26358 11.3334 1.99996V8.66663H18.0001C18.7365 8.66663 19.3334 9.26358 19.3334 9.99996Z" fill="#0065F2"/>
</svg>
